<svg width="191" height="220" viewBox="0 0 191 220" fill="none" xmlns="http://www.w3.org/2000/svg">
<path fill-rule="evenodd" clip-rule="evenodd" d="M101.504 43.2795L117.001 88.257C79.8124 121.74 73.7007 151.67 91.0784 218.503C57.608 142.446 75.7692 77.048 101.504 43.2795Z" fill="white"/>
<path fill-rule="evenodd" clip-rule="evenodd" d="M119.858 94.1433L127.9 127.398C95.4177 140.636 92.0229 167.585 92.0923 219.837C75.9727 147.614 92.8134 106.363 119.858 94.1433Z" fill="white"/>
<path fill-rule="evenodd" clip-rule="evenodd" d="M41.8769 39.6111L70.2887 52.3162C68.045 74.9982 69.8087 91.2514 77.6266 104.864V116.898C53.5006 95.2485 43.1604 64.6387 41.8769 39.6111ZM115.292 138.157C115.396 138.217 115.497 138.278 115.602 138.338C115.497 138.305 115.396 138.27 115.292 138.237V138.157Z" fill="white"/>
<path fill-rule="evenodd" clip-rule="evenodd" d="M124.153 140.686L109.788 151.372C125.007 173.639 112.448 192.311 91.5811 219.662C130.534 189.419 136.348 159.853 124.153 140.686Z" fill="white"/>
<path fill-rule="evenodd" clip-rule="evenodd" d="M143.282 142.018L170.653 137.85C161.967 178.94 117.693 205.498 93.8675 218.267C108.657 195.05 144.346 175.159 143.282 142.018Z" fill="white"/>
<path fill-rule="evenodd" clip-rule="evenodd" d="M152.685 140.412L158.855 139.369C151.591 177.478 117.398 200.306 99.6447 215.348C99.6652 215.353 99.6837 215.361 99.7027 215.369C120.752 197.594 155.721 173.141 152.685 140.412ZM97.848 216.893L97.7499 216.978C97.773 216.976 97.7949 216.973 97.818 216.973L97.8458 216.95C97.8458 216.932 97.8465 216.911 97.848 216.893ZM97.1231 217.533L96.8339 217.792L96.9556 217.719L97.1231 217.533Z" fill="white"/>
<path fill-rule="evenodd" clip-rule="evenodd" d="M167.248 92.6799C173.317 87.985 182.4 76.0053 185.792 68.3985C186.657 66.4594 189.859 59.3975 189.243 57.5583V34.2473C189.782 32.4579 187.072 27.5263 185.984 25.7836C184.32 23.119 182.821 21.3981 180.773 19.2043C179.891 18.2597 178.77 17.3811 177.746 16.5274C175.602 14.7401 169.155 10.2778 166.989 9.80811C166.325 10.9221 166.741 50.3526 166.741 51.2267L166.722 91.8122C166.935 92.9786 166.322 92.3861 167.248 92.6799Z" fill="white"/>
<path fill-rule="evenodd" clip-rule="evenodd" d="M148.09 19.5698C153.151 23.2526 157.942 27.9316 160.695 34.052C166.499 46.9528 164.522 64.659 159.818 77.786C157.301 84.8125 154.428 89.888 150.428 95.8343C141.936 108.462 131.033 116.041 130.504 116.843C131.283 116.641 132.434 116.061 133.095 115.695C143.867 109.722 148.04 108.024 158.919 99.8091C159.938 99.0392 166.523 93.75 167.248 92.6799C166.322 92.3861 166.936 92.9786 166.723 91.8122L166.741 51.2268C166.741 50.3526 166.326 10.9221 166.99 9.80811C164.812 7.99841 150.507 3.23305 147.583 3.146L147.282 16.1394C147.518 19.0079 148.001 15.3292 148.09 19.5698Z" fill="white"/>
<path fill-rule="evenodd" clip-rule="evenodd" d="M148.09 19.5699C148.001 15.3293 147.517 19.008 147.281 16.1395L147.582 3.1461L140.193 1.5997C131.535 0.20525 124.702 0.0600922 115.759 0H115.193L98.8574 1.35189L87.4012 3.28717C86.12 3.55553 84.5499 3.637 83.6696 4.31727C85.6344 4.31727 86.4947 4.01444 88.3213 4.02291C89.9623 4.03062 91.6032 4.03579 93.2445 4.02809C100.662 3.99753 112.461 5.68128 119.702 7.41009C130.033 9.87695 140.738 13.9628 148.09 19.5699Z" fill="white"/>
<path fill-rule="evenodd" clip-rule="evenodd" d="M189.243 57.5583C189.938 56.9471 189.886 56.679 190.172 55.1367C190.382 54.0052 190.487 53.3984 190.653 52.2214C191.264 47.912 191.091 39.3814 189.945 35.5003C189.528 34.0897 190.004 34.9158 189.243 34.2473V57.5583Z" fill="white"/>
<path fill-rule="evenodd" clip-rule="evenodd" d="M8.37205 52.218C9.01304 53.1525 8.77495 54.2471 8.77495 55.8318H9.29275C9.29275 57.8066 9.56261 98.5348 9.14478 99.7541C9.12681 99.8026 9.08392 99.8728 9.06594 99.9149C8.55362 101.106 8.77495 100.259 8.77495 103.029C9.0143 103.892 10.1653 104.879 10.7657 105.547C14.5004 109.703 19.0623 112.859 23.8111 115.5C25.0856 116.209 28.8114 118.45 30.1059 118.57C30.0641 116.358 29.6144 118.908 29.6177 113.102L29.5946 94.3954C27.75 91.3946 26.9845 91.353 25.1853 86.343C24.0952 83.3078 23.6825 79.0274 23.8951 74.5366C24.3494 64.9409 29.031 56.7699 29.6093 54.3929L29.6945 31.1819C29.88 30.2936 29.9036 30.9916 30.07 29.894C30.1363 29.4559 30.1049 28.9419 30.1049 28.4919C29.2567 28.7446 27.7942 30.2037 27.0372 30.8337C25.9421 31.7448 25.1324 32.6028 24.0448 33.5493C23.3473 34.1564 23.2695 34.2895 22.6632 34.8904C22.0366 35.5109 21.748 35.6254 21.1098 36.3285C19.2531 38.3747 17.0551 40.2083 15.6162 42.3058L10.6181 48.8339C9.75315 50.0124 9.16712 51.0996 8.37205 52.218Z" fill="white"/>
<path fill-rule="evenodd" clip-rule="evenodd" d="M30.1059 118.57C30.9397 119.372 34.2905 120.455 35.3154 120.835C37.2794 121.563 38.96 122.106 41.065 122.787C42.9641 123.401 51.4311 125.917 53.1366 125.666L53.8333 125.268C53.2355 124.927 53.2976 126.118 53.3379 122.313L53.4032 112.847C53.5313 112.24 53.4483 112.496 53.6543 112.15L50.3765 110.416C44.3259 107.045 37.073 102.666 32.1077 97.3512C31.1693 96.3466 30.4001 95.4444 29.5956 94.3954L29.6187 113.102C29.6161 118.908 30.064 116.358 30.1059 118.57Z" fill="white"/>
<path fill-rule="evenodd" clip-rule="evenodd" d="M8.77492 103.029C8.77492 100.259 8.55359 101.106 9.06591 99.9149C9.08389 99.8728 9.12806 99.8026 9.14475 99.7541C9.56257 98.5348 9.29272 57.8067 9.29272 55.8318H8.77492C8.77492 54.2471 9.013 53.1525 8.37202 52.218C5.6029 57.1941 5.02895 57.7967 2.86281 63.5183C-1.70266 75.5778 -0.695948 87.3969 5.08626 98.0502C5.82663 99.4146 7.47934 102.32 8.77492 103.029Z" fill="white"/>
<path fill-rule="evenodd" clip-rule="evenodd" d="M30.106 28.4921C30.106 28.942 30.1374 29.456 30.0712 29.8941C29.9047 30.9917 29.8811 30.2938 29.6957 31.182L29.6104 54.393L35.0231 44.8945C36.124 43.0458 39.8299 37.3803 41.4915 35.9746C41.0374 35.2306 41.153 24.3562 41.2141 23.3105C41.3019 21.8056 41.4111 22.8177 41.8156 21.7871C42.115 21.0242 42.3903 20.4345 41.4928 20.4324C40.216 20.3451 30.6908 27.5272 30.106 28.4921Z" fill="white"/>
<path fill-rule="evenodd" clip-rule="evenodd" d="M41.4927 20.4324C42.3902 20.4344 42.1149 21.0241 41.8155 21.7871C41.411 22.8177 41.3018 21.8051 41.214 23.3105C41.1529 24.3562 41.0373 35.2305 41.4913 35.9745C41.6046 35.1214 42.2687 34.73 43.2656 33.3414L58.5052 17.1866C59.2666 16.3145 58.7907 17.0518 58.8865 16.4049L58.9179 12.3239C58.7774 11.7694 59.0969 12.3135 58.3788 11.8002V10.6489L49.8562 15.0582C49.0688 15.4963 48.5799 15.7683 47.7861 16.2095C46.8812 16.7123 46.4395 17.097 45.636 17.5595L42.0997 19.6838C41.5291 20.1871 41.9223 19.671 41.4927 20.4324Z" fill="white"/>
<path fill-rule="evenodd" clip-rule="evenodd" d="M53.1366 125.666C53.6335 126.136 52.9895 125.712 53.706 125.975L66.654 128.067L67.577 127.754C67.6384 127.731 67.719 127.696 67.7755 127.673C67.8325 127.65 67.9267 127.604 67.9732 127.584C68.02 127.564 68.1119 127.536 68.1713 127.491L68.1376 118.282C65.7521 117.656 63.0919 116.328 60.869 115.438C58.3444 114.426 56.1481 113.204 53.6543 112.15C53.4484 112.496 53.5314 112.24 53.4032 112.847L53.3379 122.313C53.2976 126.118 53.2355 124.927 53.8333 125.268L53.1366 125.666Z" fill="white"/>
<path fill-rule="evenodd" clip-rule="evenodd" d="M66.6541 128.067C68.132 128.219 69.8781 128.597 71.5085 128.642L82.1161 129.507C83.8767 129.613 85.9456 129.505 87.7406 129.505C88.574 128.538 88.2652 126.895 88.2488 124.901L73.17 120.175C71.7404 119.724 69.2953 118.89 68.1377 118.282L68.1714 127.491C68.112 127.536 68.0201 127.565 67.9733 127.584C67.9268 127.605 67.8326 127.65 67.7756 127.673C67.7191 127.696 67.6385 127.73 67.5771 127.754L66.6541 128.067Z" fill="white"/>
<path fill-rule="evenodd" clip-rule="evenodd" d="M87.7405 129.505C92.003 129.505 91.3506 130.053 97.1385 129.521C98.583 129.388 100.546 129.5 102.042 129.505C104.094 129.513 105.071 129.217 106.958 129.217V128.929C105.668 128.929 103.337 128.379 102.232 128.141L88.2487 124.9C88.2641 126.894 88.5739 128.538 87.7405 129.505Z" fill="white"/>
<path fill-rule="evenodd" clip-rule="evenodd" d="M58.3788 10.649V11.8003C59.0969 12.3139 58.7774 11.7695 58.9179 12.3239L58.8865 16.405C60.1557 15.8942 64.6505 11.7658 65.8893 10.7311L72.802 5.1814C71.3015 5.21838 66.8601 7.17183 65.518 7.72781C64.3074 8.22909 63.3444 8.59115 62.1159 9.12453C60.9356 9.6366 59.5915 10.4171 58.3788 10.649Z" fill="white"/>
</svg>
