<svg width="100" height="115" viewBox="0 0 100 115" fill="none" xmlns="http://www.w3.org/2000/svg">
<path fill-rule="evenodd" clip-rule="evenodd" d="M52.7009 22.4708L60.7471 45.8232C41.4387 63.2075 38.2655 78.7473 47.2881 113.447C29.9102 73.9583 39.3396 40.0035 52.7009 22.4708Z" fill="#D82431"/>
<path fill-rule="evenodd" clip-rule="evenodd" d="M62.2308 48.8794L66.406 66.1451C49.541 73.0184 47.7785 87.0107 47.8145 114.14C39.4452 76.6412 48.1889 55.2237 62.2308 48.8794Z" fill="#D82431"/>
<path fill-rule="evenodd" clip-rule="evenodd" d="M21.7426 20.5662L36.494 27.1627C35.3291 38.9392 36.2448 47.3779 40.3039 54.4454V60.6938C27.7776 49.4532 22.409 33.5606 21.7426 20.5662ZM59.8596 71.7312C59.9136 71.7628 59.9663 71.7941 60.0205 71.8256C59.9663 71.8084 59.9136 71.7899 59.8596 71.7727V71.7312Z" fill="#D82431"/>
<path fill-rule="evenodd" clip-rule="evenodd" d="M64.4604 73.0447L57.002 78.5929C64.904 90.1538 58.3832 99.8485 47.5491 114.049C67.7737 98.3467 70.792 82.9961 64.4604 73.0447Z" fill="#251C1A"/>
<path fill-rule="evenodd" clip-rule="evenodd" d="M74.3925 73.7359L88.6036 71.5719C84.0938 92.9062 61.1062 106.695 48.7362 113.325C56.4147 101.27 74.9448 90.9428 74.3925 73.7359Z" fill="#251C1A"/>
<path fill-rule="evenodd" clip-rule="evenodd" d="M79.2743 72.9019L82.4777 72.3608C78.7065 92.1467 60.9535 103.999 51.7357 111.809C51.7464 111.812 51.756 111.816 51.7658 111.82C62.6945 102.591 80.8507 89.895 79.2743 72.9019ZM50.8029 112.611L50.752 112.656C50.764 112.654 50.7753 112.653 50.7873 112.653L50.8017 112.641C50.8017 112.632 50.8021 112.621 50.8029 112.611ZM50.4265 112.943L50.2764 113.078L50.3396 113.04L50.4265 112.943Z" fill="#251C1A"/>
<path fill-rule="evenodd" clip-rule="evenodd" d="M86.8353 48.1196C89.9866 45.682 94.7025 39.4621 96.4636 35.5127C96.9127 34.5059 98.5753 30.8393 98.2553 29.8844V17.7813C98.5353 16.8522 97.1283 14.2917 96.5631 13.3869C95.6991 12.0035 94.9208 11.11 93.8574 9.97091C93.3997 9.48051 92.8179 9.0243 92.286 8.5811C91.1731 7.6531 87.8258 5.33627 86.7009 5.09241C86.3564 5.67081 86.572 26.1432 86.572 26.597L86.5626 47.6691C86.6729 48.2747 86.3545 47.9671 86.8353 48.1196Z" fill="#64266E"/>
<path fill-rule="evenodd" clip-rule="evenodd" d="M76.8887 10.1607C79.5162 12.0728 82.0039 14.5022 83.4334 17.6799C86.4465 24.378 85.4201 33.5711 82.9778 40.3867C81.6709 44.0348 80.1792 46.67 78.1026 49.7574C73.6932 56.3135 68.0325 60.2485 67.7581 60.6649C68.1623 60.5603 68.7601 60.2589 69.103 60.0689C74.6962 56.9678 76.8627 56.0864 82.5109 51.8211C83.0402 51.4214 86.459 48.6752 86.8352 48.1196C86.3544 47.9671 86.6734 48.2747 86.5631 47.6691L86.5725 26.597C86.5725 26.1432 86.3568 5.67081 86.7014 5.09241C85.5708 4.15281 78.1435 1.67862 76.6254 1.63342L76.4691 8.3796C76.5915 9.86893 76.8424 7.95895 76.8887 10.1607Z" fill="#64266E"/>
<path fill-rule="evenodd" clip-rule="evenodd" d="M76.8887 10.1607C76.8424 7.95899 76.591 9.86897 76.4686 8.37964L76.6249 1.63346L72.7885 0.830566C68.2934 0.106566 64.7457 0.0312 60.1021 0H59.8086L51.327 0.701904L45.3789 1.70671C44.7137 1.84604 43.8985 1.88834 43.4414 2.24154C44.4615 2.24154 44.9082 2.0843 45.8566 2.0887C46.7086 2.0927 47.5606 2.09539 48.4127 2.09139C52.2639 2.07552 58.3902 2.94973 62.1494 3.84733C67.5134 5.12813 73.0714 7.24953 76.8887 10.1607Z" fill="#64266E"/>
<path fill-rule="evenodd" clip-rule="evenodd" d="M98.2552 29.8844C98.6163 29.567 98.5891 29.4278 98.7377 28.627C98.8466 28.0396 98.901 27.7245 98.9877 27.1134C99.3049 24.876 99.2149 20.4469 98.6197 18.4318C98.4034 17.6994 98.6504 18.1283 98.2552 17.7812V29.8844Z" fill="#64266E"/>
<path fill-rule="evenodd" clip-rule="evenodd" d="M4.34678 27.1117C4.67958 27.5969 4.55597 28.1652 4.55597 28.988H4.82481C4.82481 30.0133 4.96492 51.1595 4.74799 51.7925C4.73865 51.8177 4.71638 51.8542 4.70705 51.876C4.44105 52.4947 4.55597 52.0548 4.55597 53.493C4.68024 53.9408 5.27785 54.4535 5.58958 54.8003C7.52865 56.9579 9.89717 58.5967 12.3628 59.9679C13.0245 60.3358 14.9589 61.4993 15.631 61.5616C15.6093 60.4134 15.3759 61.7371 15.3776 58.7227L15.3656 49.0103C14.4078 47.4523 14.0104 47.4307 13.0763 44.8295C12.5103 43.2536 12.296 41.0312 12.4064 38.6996C12.6423 33.7175 15.0729 29.4751 15.3732 28.2409L15.4175 16.1897C15.5137 15.7285 15.526 16.0909 15.6124 15.521C15.6468 15.2936 15.6305 15.0267 15.6305 14.7931C15.1901 14.9243 14.4308 15.6818 14.0377 16.0089C13.4692 16.482 13.0488 16.9274 12.4841 17.4189C12.122 17.7341 12.0816 17.8032 11.7668 18.1152C11.4415 18.4373 11.2916 18.4968 10.9603 18.8619C9.99627 19.9243 8.85504 20.8762 8.10797 21.9653L5.51292 25.3547C5.06385 25.9666 4.75958 26.531 4.34678 27.1117Z" fill="#64266E"/>
<path fill-rule="evenodd" clip-rule="evenodd" d="M15.631 61.5615C16.064 61.9781 17.8037 62.5406 18.3358 62.738C19.3555 63.1157 20.2281 63.3975 21.321 63.7511C22.307 64.0699 26.7032 65.3765 27.5886 65.2461L27.9504 65.0391C27.64 64.8621 27.6722 65.4805 27.6932 63.5051L27.7271 58.5905C27.7936 58.2754 27.7505 58.4084 27.8574 58.2284L26.1556 57.328C23.0141 55.5781 19.2484 53.3045 16.6704 50.5449C16.1832 50.0233 15.7838 49.5549 15.3661 49.0103L15.3781 58.7227C15.3768 61.7371 15.6093 60.4134 15.631 61.5615Z" fill="#64266E"/>
<path fill-rule="evenodd" clip-rule="evenodd" d="M4.55596 53.493C4.55596 52.0548 4.44104 52.4947 4.70704 51.876C4.71637 51.8542 4.73931 51.8177 4.74797 51.7925C4.96491 51.1595 4.8248 30.0133 4.8248 28.988H4.55596C4.55596 28.1652 4.67957 27.5969 4.34677 27.1117C2.90904 29.6953 2.61104 30.0081 1.48638 32.9788C-0.884023 39.2401 -0.361338 45.3766 2.6408 50.9078C3.0252 51.6162 3.88329 53.125 4.55596 53.493Z" fill="#64266E"/>
<path fill-rule="evenodd" clip-rule="evenodd" d="M15.6311 14.7931C15.6311 15.0267 15.6474 15.2936 15.613 15.5211C15.5266 16.0909 15.5143 15.7286 15.4181 16.1898L15.3738 28.241L18.184 23.3093C18.7556 22.3495 20.6798 19.4079 21.5424 18.6781C21.3067 18.2918 21.3667 12.6458 21.3984 12.1029C21.444 11.3215 21.5007 11.847 21.7107 11.3119C21.8662 10.9158 22.0091 10.6096 21.5431 10.6086C20.8802 10.5632 15.9347 14.2922 15.6311 14.7931Z" fill="#64266E"/>
<path fill-rule="evenodd" clip-rule="evenodd" d="M21.5431 10.6085C22.0091 10.6096 21.8662 10.9158 21.7107 11.3119C21.5007 11.847 21.444 11.3212 21.3984 12.1028C21.3667 12.6458 21.3067 18.2918 21.5424 18.678C21.6012 18.2351 21.946 18.0318 22.4636 17.3109L30.376 8.9233C30.7713 8.4705 30.5243 8.85332 30.574 8.51746L30.5903 6.39856C30.5174 6.11069 30.6832 6.3932 30.3104 6.12667V5.52893L25.8854 7.81824C25.4766 8.0457 25.2228 8.18691 24.8107 8.41598C24.3408 8.67704 24.1115 8.87677 23.6943 9.1169L21.8583 10.2198C21.562 10.4812 21.7661 10.2132 21.5431 10.6085Z" fill="#64266E"/>
<path fill-rule="evenodd" clip-rule="evenodd" d="M27.5886 65.2461C27.8466 65.4903 27.5122 65.2699 27.8842 65.4065L34.6069 66.4926L35.0861 66.33C35.118 66.318 35.1598 66.3002 35.1892 66.2883C35.2188 66.2763 35.2677 66.2523 35.2918 66.242C35.3161 66.2313 35.3639 66.2169 35.3947 66.1937L35.3772 61.4122C34.1386 61.0872 32.7574 60.398 31.6033 59.9354C30.2925 59.41 29.1522 58.776 27.8574 58.2284C27.7505 58.4084 27.7936 58.2755 27.7271 58.5905L27.6932 63.5052C27.6722 65.4805 27.64 64.8621 27.9504 65.0392L27.5886 65.2461Z" fill="#64266E"/>
<path fill-rule="evenodd" clip-rule="evenodd" d="M34.6069 66.4925C35.3743 66.5716 36.2808 66.7677 37.1274 66.7912L42.6348 67.2402C43.5489 67.2953 44.6231 67.2394 45.5551 67.2394C45.9878 66.737 45.8275 65.8839 45.8189 64.8489L37.99 62.395C37.2477 62.1608 35.9783 61.7281 35.3772 61.4121L35.3947 66.1937C35.3639 66.2169 35.3161 66.2318 35.2919 66.2419C35.2677 66.2526 35.2188 66.2762 35.1892 66.2882C35.1599 66.3002 35.118 66.3175 35.0861 66.3299L34.6069 66.4925Z" fill="#64266E"/>
<path fill-rule="evenodd" clip-rule="evenodd" d="M45.5551 67.2394C47.7681 67.2394 47.4294 67.5239 50.4345 67.2474C51.1845 67.1783 52.2034 67.2368 52.9805 67.2394C54.046 67.2434 54.5529 67.0897 55.5326 67.0897V66.9402C54.8632 66.9402 53.6528 66.6545 53.0793 66.5309L45.8189 64.8484C45.8269 65.8835 45.9877 66.737 45.5551 67.2394Z" fill="#64266E"/>
<path fill-rule="evenodd" clip-rule="evenodd" d="M30.3104 5.52897V6.12671C30.6832 6.39338 30.5174 6.11073 30.5903 6.3986L30.574 8.5175C31.2329 8.2523 33.5667 6.10881 34.2099 5.57161L37.799 2.69019C37.0199 2.70939 34.7139 3.72362 34.0171 4.01229C33.3886 4.27256 32.8886 4.46053 32.2507 4.73747C31.6379 5.00333 30.94 5.40857 30.3104 5.52897Z" fill="#64266E"/>
</svg>
