<svg width="636" height="123" viewBox="0 0 636 123" fill="none" xmlns="http://www.w3.org/2000/svg">
<path fill-rule="evenodd" clip-rule="evenodd" d="M52.7008 22.4708L60.7471 45.8232C41.4387 63.2075 38.2655 78.7473 47.288 113.447C29.9102 73.9583 39.3395 40.0035 52.7008 22.4708Z" fill="#D82431"/>
<path fill-rule="evenodd" clip-rule="evenodd" d="M62.2308 48.8794L66.406 66.1451C49.5411 73.0184 47.7786 87.0107 47.8146 114.14C39.4452 76.6412 48.189 55.2237 62.2308 48.8794Z" fill="#D82431"/>
<path fill-rule="evenodd" clip-rule="evenodd" d="M21.7426 20.5662L36.494 27.1627C35.3291 38.9392 36.2448 47.3779 40.3039 54.4454V60.6938C27.7776 49.4532 22.409 33.5606 21.7426 20.5662ZM59.8596 71.7312C59.9136 71.7628 59.9663 71.7941 60.0205 71.8256C59.9663 71.8084 59.9136 71.7899 59.8596 71.7727V71.7312Z" fill="#D82431"/>
<path fill-rule="evenodd" clip-rule="evenodd" d="M64.4604 73.0447L57.002 78.5929C64.904 90.1538 58.3832 99.8485 47.5491 114.049C67.7737 98.3467 70.792 82.9961 64.4604 73.0447Z" fill="white"/>
<path fill-rule="evenodd" clip-rule="evenodd" d="M74.3924 73.7359L88.6035 71.5719C84.0938 92.9062 61.1061 106.695 48.7361 113.325C56.4147 101.27 74.9447 90.9428 74.3924 73.7359Z" fill="white"/>
<path fill-rule="evenodd" clip-rule="evenodd" d="M79.2743 72.9019L82.4778 72.3608C78.7066 92.1467 60.9535 103.999 51.7358 111.809C51.7464 111.812 51.756 111.816 51.7659 111.82C62.6946 102.591 80.8507 89.895 79.2743 72.9019ZM50.803 112.611L50.752 112.656C50.764 112.654 50.7754 112.653 50.7874 112.653L50.8018 112.641C50.8018 112.632 50.8022 112.621 50.803 112.611ZM50.4266 112.943L50.2764 113.078L50.3396 113.04L50.4266 112.943Z" fill="white"/>
<path fill-rule="evenodd" clip-rule="evenodd" d="M129.389 65.3372V43.7758L115.618 14.3307H124.414L133.253 34.3724L141.932 14.3307H150.717L136.947 43.847V65.3372H129.389ZM362.662 14.3307H370.22V46.6135C370.22 51.8256 369.75 55.7081 368.811 58.2608C367.872 60.8135 366.473 62.7726 364.605 64.138C362.737 65.5034 360.442 66.1919 357.709 66.1919C354.101 66.1919 351.283 64.8148 349.233 62.0601C347.194 59.3056 346.158 55.1501 346.137 49.5935L353.311 48.4537C353.396 51.4339 353.738 53.5473 354.346 54.794C355.157 56.5037 356.385 57.3585 358.019 57.3585C359.609 57.3585 360.783 56.7412 361.531 55.4945C362.289 54.2596 362.662 51.505 362.662 47.2426V14.3307Z" fill="#D82431"/>
<path fill-rule="evenodd" clip-rule="evenodd" d="M183.618 65.5375H175.398L172.185 53.9968H157.069L153.963 65.5375H145.892L160.506 14.5311H168.598L183.618 65.5375ZM169.709 45.3771L164.499 26.4398L159.396 45.3771H169.709ZM185.721 48.9391L193.087 47.9417C193.92 54.4481 196.663 57.7013 201.307 57.7013C203.613 57.7013 205.417 57.0364 206.741 55.7065C208.054 54.3768 208.716 52.7265 208.716 50.7556C208.716 49.592 208.481 48.6184 208.022 47.7992C207.563 46.9919 206.858 46.327 205.919 45.8046C204.979 45.2822 202.695 44.4036 199.087 43.1807C195.852 42.0883 193.482 40.9128 191.977 39.6426C190.482 38.3602 189.287 36.6861 188.401 34.6203C187.515 32.5424 187.066 30.3103 187.066 27.9239C187.066 25.1455 187.632 22.6404 188.774 20.42C189.917 18.1999 191.486 16.5139 193.493 15.374C195.5 14.246 197.976 13.6763 200.923 13.6763C205.353 13.6763 208.812 15.006 211.299 17.6775C213.786 20.349 215.099 24.1719 215.249 29.1348L207.627 29.5623C207.296 26.8435 206.57 24.9319 205.46 23.8514C204.349 22.771 202.77 22.2247 200.709 22.2247C198.66 22.2247 197.08 22.6997 195.969 23.6376C194.859 24.5756 194.304 25.7391 194.304 27.1403C194.304 28.5175 194.817 29.6692 195.831 30.6071C196.845 31.5452 199.161 32.6018 202.759 33.7535C206.581 35.0002 209.335 36.3063 211.032 37.6597C212.729 39.025 214.032 40.7703 214.929 42.9075C215.825 45.0565 216.274 47.6568 216.274 50.7199C216.274 55.1368 215.046 58.8648 212.601 61.8688C210.146 64.8844 206.314 66.3923 201.104 66.3923C191.891 66.3923 186.768 60.5746 185.721 48.9391ZM222.604 14.5311H230.162V42.1239C230.162 46.4101 230.258 49.2003 230.45 50.5063C230.781 52.7501 231.582 54.4838 232.852 55.7186C234.122 56.9415 235.798 57.5588 237.88 57.5588C239.641 57.5588 241.072 57.1195 242.193 56.2528C243.303 55.386 244.061 54.1869 244.467 52.6435C244.883 51.0999 245.086 47.7873 245.086 42.7176V14.5311H252.644V41.3166C252.644 48.1554 252.313 53.0946 251.662 56.1459C251 59.1974 249.516 61.667 247.21 63.5547C244.904 65.4426 241.862 66.3923 238.083 66.3923C234.154 66.3923 231.091 65.6087 228.881 64.0413C226.682 62.4741 225.081 60.2778 224.088 57.4402C223.095 54.5906 222.604 49.3546 222.604 41.7322V14.5311ZM260.512 14.5311H274.357C277.859 14.5311 280.506 14.9703 282.289 15.8371C284.072 16.7039 285.705 18.1762 287.21 20.242C288.715 22.296 289.89 24.9792 290.744 28.2681C291.597 31.5688 292.025 35.6651 292.025 40.5567C292.025 44.9617 291.576 48.7966 290.679 52.0498C289.783 55.3149 288.651 57.8912 287.274 59.7909C285.897 61.7025 284.232 63.1272 282.289 64.089C280.335 65.0507 277.826 65.5375 274.763 65.5375H260.512V14.5311ZM268.07 23.1508V56.9178H273.77C276.215 56.9178 277.987 56.6683 279.086 56.1579C280.186 55.6472 281.083 54.8756 281.776 53.8425C282.481 52.8096 283.057 51.183 283.517 48.9508C283.975 46.7307 284.21 43.7981 284.21 40.153C284.21 36.3774 283.975 33.3973 283.506 31.2127C283.036 29.0399 282.299 27.3183 281.307 26.0716C280.314 24.8249 279.108 23.9938 277.688 23.6021C276.631 23.3054 274.571 23.1508 271.518 23.1508H268.07ZM332.366 65.5375H324.146L320.933 53.9968H305.817L302.71 65.5375H294.64L309.254 14.5311H317.346L332.366 65.5375ZM318.456 45.3771L313.247 26.4398L308.144 45.3771H318.456ZM412.174 65.5375H403.954L400.741 53.9968H385.624L382.518 65.5375H374.447L389.062 14.5311H397.154L412.174 65.5375ZM398.264 45.3771L393.054 26.4398L387.952 45.3771H398.264ZM421.247 65.5375V43.9762L407.476 14.5311H416.273L425.112 34.5727L433.791 14.5311H442.576L428.805 44.0472V65.5375H421.247ZM475.477 65.5375H467.257L464.044 53.9968H448.928L445.821 65.5375H437.751L452.365 14.5311H460.457L475.477 65.5375ZM461.567 45.3771L456.358 26.4398L451.255 45.3771H461.567ZM500.649 65.5375V23.1508H489.504V14.5311H519.352V23.1508H508.207V65.5375H500.649ZM521.839 40.3431C521.839 34.2759 522.651 29.2772 524.263 25.3473C525.875 21.4175 527.988 18.4847 530.593 16.5614C533.198 14.638 536.357 13.6763 540.062 13.6763C545.442 13.6763 549.819 15.9557 553.203 20.5269C556.587 25.098 558.284 31.5925 558.284 40.0343C558.284 48.5591 556.491 55.2317 552.904 60.0284C549.766 64.2671 545.485 66.3923 540.094 66.3923C534.649 66.3923 530.358 64.2908 527.22 60.0998C523.633 55.303 521.839 48.7134 521.839 40.3431ZM529.654 39.9987C529.654 45.8522 530.657 50.2451 532.653 53.1659C534.66 56.0986 537.147 57.5588 540.105 57.5588C543.094 57.5588 545.57 56.1103 547.524 53.2015C549.488 50.3044 550.47 45.8402 550.47 39.8206C550.47 33.9316 549.52 29.5623 547.609 26.7483C545.698 23.9227 543.2 22.5098 540.105 22.5098C537.019 22.5098 534.511 23.9344 532.568 26.7721C530.625 29.6216 529.654 34.0266 529.654 39.9987ZM564.188 14.5311H571.746V42.1239C571.746 46.4101 571.842 49.2003 572.034 50.5063C572.365 52.7501 573.166 54.4838 574.436 55.7186C575.706 56.9415 577.382 57.5588 579.464 57.5588C581.225 57.5588 582.656 57.1195 583.777 56.2528C584.887 55.386 585.645 54.1869 586.051 52.6435C586.467 51.0999 586.67 47.7873 586.67 42.7176V14.5311H594.228V41.3166C594.228 48.1554 593.897 53.0946 593.246 56.1459C592.584 59.1974 591.1 61.667 588.794 63.5547C586.488 65.4426 583.446 66.3923 579.667 66.3923C575.738 66.3923 572.675 65.6087 570.465 64.0413C568.266 62.4741 566.664 60.2778 565.672 57.4402C564.679 54.5906 564.188 49.3546 564.188 41.7322V14.5311ZM602.159 65.5375V14.5311H618.14C622.229 14.5311 625.143 14.9942 626.904 15.9084C628.655 16.8226 630.085 18.4135 631.217 20.6695C632.338 22.9372 632.904 25.6441 632.904 28.7905C632.904 32.7799 632.039 35.9975 630.321 38.4315C628.602 40.8655 626.157 42.3971 622.987 43.0263C624.609 44.3204 625.965 45.7453 627.022 47.2887C628.089 48.8322 629.541 51.5987 631.388 55.5879L635.978 65.5375H626.894L621.385 54.4482C619.41 50.4351 618.065 47.918 617.35 46.9087C616.646 45.8995 615.887 45.199 615.098 44.8191C614.308 44.4272 613.037 44.2374 611.287 44.2374H609.717V65.5375H602.159ZM609.717 36.1161H615.354C618.802 36.1161 620.99 35.9499 621.93 35.6056C622.869 35.2732 623.627 34.5966 624.214 33.5755C624.801 32.5543 625.09 31.1889 625.09 29.4911C625.09 27.8646 624.801 26.5585 624.214 25.573C623.627 24.5875 622.837 23.9107 621.833 23.5307C621.129 23.2815 619.069 23.1508 615.663 23.1508H609.717V36.1161Z" fill="white"/>
<path fill-rule="evenodd" clip-rule="evenodd" d="M116.957 115.835L120.771 94.7252H113.877L114.369 92.0324H130.654L130.162 94.7252H123.493L119.678 115.835H116.957ZM128.783 115.835L133.079 92.0324H135.595L133.943 101.18C134.869 100.122 135.734 99.3626 136.531 98.9028C137.333 98.443 138.154 98.2157 138.995 98.2157C140.207 98.2157 141.148 98.5925 141.821 99.3461C142.489 100.094 142.824 101.086 142.824 102.321C142.824 102.925 142.666 104.039 142.351 105.662L140.408 115.835H137.892L139.873 105.408C140.155 103.895 140.298 102.948 140.298 102.554C140.298 101.994 140.136 101.535 139.806 101.18C139.477 100.82 138.999 100.642 138.379 100.642C137.481 100.642 136.627 100.92 135.815 101.479C135.003 102.033 134.364 102.792 133.9 103.762C133.442 104.726 133.017 106.288 132.635 108.438L131.298 115.835H128.783ZM155.638 109.984L158.101 110.25C157.743 111.668 156.927 113.009 155.652 114.289C154.377 115.564 152.854 116.201 151.088 116.201C149.985 116.201 148.973 115.907 148.056 115.32C147.135 114.727 146.433 113.874 145.951 112.749C145.468 111.624 145.23 110.344 145.23 108.909C145.23 107.031 145.607 105.208 146.357 103.441C147.111 101.673 148.085 100.36 149.278 99.5013C150.477 98.6425 151.771 98.2157 153.165 98.2157C154.941 98.2157 156.359 98.853 157.418 100.127C158.478 101.396 159.008 103.136 159.008 105.336C159.008 106.178 158.941 107.036 158.813 107.923H147.836C147.798 108.261 147.779 108.56 147.779 108.832C147.779 110.45 148.099 111.68 148.744 112.533C149.383 113.381 150.171 113.807 151.097 113.807C151.966 113.807 152.826 113.48 153.671 112.821C154.511 112.167 155.17 111.22 155.638 109.984ZM148.242 105.662H156.616C156.626 105.363 156.631 105.147 156.631 105.014C156.631 103.551 156.311 102.427 155.676 101.645C155.036 100.864 154.219 100.476 153.217 100.476C152.129 100.476 151.14 100.908 150.248 101.767C149.35 102.632 148.686 103.928 148.242 105.662ZM169.006 115.835L173.302 92.0324H181.901C183.596 92.0324 184.885 92.1986 185.759 92.5257C186.637 92.858 187.324 93.4786 187.821 94.3871C188.322 95.2958 188.571 96.4428 188.571 97.828C188.571 99.7617 188.026 101.368 186.933 102.648C185.845 103.923 184.083 104.754 181.648 105.131C182.393 105.768 182.961 106.399 183.343 107.014C184.188 108.416 184.866 109.862 185.381 111.353L186.966 115.835H183.906L182.416 111.403C181.887 109.807 181.28 108.422 180.602 107.258C180.149 106.438 179.681 105.901 179.194 105.646C178.707 105.391 177.919 105.264 176.826 105.264H173.637L171.727 115.835H169.006ZM174.105 102.67H177.895C179.652 102.67 180.793 102.648 181.323 102.604C182.364 102.488 183.214 102.216 183.878 101.795C184.541 101.374 185.052 100.803 185.415 100.088C185.782 99.3793 185.964 98.6091 185.964 97.7891C185.964 97.0966 185.83 96.4927 185.558 95.9775C185.286 95.4676 184.933 95.1185 184.493 94.9357C184.054 94.7529 183.304 94.6588 182.249 94.6588H175.546L174.105 102.67ZM192.929 95.3568L193.531 92.0324H196.047L195.445 95.3568H192.929ZM189.234 115.835L192.347 98.5814H194.863L191.75 115.835H189.234ZM195.484 117.397L198.062 117.663C198.043 118.34 198.114 118.844 198.272 119.182C198.429 119.52 198.682 119.78 199.026 119.963C199.48 120.201 200.072 120.323 200.797 120.323C202.325 120.323 203.423 119.863 204.092 118.943C204.531 118.323 204.937 116.982 205.309 114.915L205.562 113.519C204.249 115.065 202.85 115.835 201.365 115.835C199.866 115.835 198.611 115.192 197.603 113.913C196.591 112.633 196.085 110.815 196.085 108.472C196.085 106.532 196.481 104.754 197.279 103.13C198.076 101.507 199.021 100.282 200.119 99.4569C201.217 98.6313 202.349 98.2157 203.514 98.2157C205.457 98.2157 206.956 99.2685 208.011 101.38L208.531 98.5814H210.876L207.854 115.237C207.529 117.071 207.1 118.495 206.57 119.52C206.035 120.545 205.299 121.343 204.354 121.902C203.409 122.467 202.316 122.75 201.074 122.75C199.881 122.75 198.854 122.573 197.99 122.212C197.131 121.858 196.486 121.331 196.061 120.644C195.636 119.952 195.426 119.165 195.426 118.278C195.426 118.007 195.445 117.713 195.484 117.397ZM198.663 108.211C198.663 109.391 198.764 110.278 198.959 110.876C199.236 111.707 199.637 112.344 200.158 112.782C200.673 113.22 201.251 113.441 201.886 113.441C202.721 113.441 203.547 113.103 204.369 112.428C205.194 111.752 205.858 110.704 206.369 109.286C206.875 107.868 207.133 106.516 207.133 105.225C207.133 103.806 206.794 102.676 206.116 101.834C205.438 100.997 204.598 100.576 203.6 100.576C202.984 100.576 202.382 100.77 201.805 101.152C201.222 101.535 200.683 102.122 200.186 102.909C199.685 103.69 199.308 104.632 199.05 105.723C198.792 106.82 198.663 107.646 198.663 108.211ZM211.587 115.835L215.884 92.0324H218.4L216.748 101.18C217.674 100.122 218.539 99.3626 219.336 98.9028C220.138 98.443 220.959 98.2157 221.799 98.2157C223.012 98.2157 223.953 98.5925 224.626 99.3461C225.294 100.094 225.628 101.086 225.628 102.321C225.628 102.925 225.471 104.039 225.156 105.662L223.213 115.835H220.697L222.678 105.408C222.96 103.895 223.103 102.948 223.103 102.554C223.103 101.994 222.94 101.535 222.611 101.18C222.282 100.82 221.804 100.642 221.184 100.642C220.286 100.642 219.431 100.92 218.62 101.479C217.808 102.033 217.168 102.792 216.705 103.762C216.247 104.726 215.822 106.288 215.44 108.438L214.103 115.835H211.587ZM233.41 113.453L232.99 115.857C232.384 116.04 231.797 116.134 231.229 116.134C230.221 116.134 229.424 115.846 228.827 115.27C228.383 114.838 228.159 114.245 228.159 113.497C228.159 113.12 228.278 112.245 228.522 110.882L230.326 100.842H228.321L228.722 98.5814H230.727L231.496 94.3539L234.394 92.3317L233.248 98.5814H235.74L235.311 100.842H232.847L231.128 110.389C230.914 111.602 230.808 112.328 230.808 112.566C230.808 112.915 230.894 113.181 231.066 113.364C231.238 113.547 231.52 113.641 231.911 113.641C232.47 113.641 232.971 113.58 233.41 113.453ZM244.468 108.156L247.16 107.856L247.132 108.688C247.132 109.607 247.313 110.45 247.676 111.214C248.039 111.973 248.64 112.566 249.476 112.982C250.316 113.397 251.309 113.608 252.465 113.608C254.102 113.608 255.348 113.192 256.212 112.356C257.072 111.519 257.501 110.566 257.501 109.491C257.501 108.743 257.272 108.056 256.819 107.441C256.351 106.832 255.081 106.011 253.004 104.97C251.395 104.161 250.297 103.54 249.71 103.108C248.789 102.404 248.11 101.64 247.671 100.809C247.237 99.9832 247.017 99.0413 247.017 97.9775C247.017 96.7585 247.308 95.6503 247.886 94.6697C248.464 93.6835 249.309 92.9299 250.421 92.4147C251.534 91.8938 252.789 91.6335 254.188 91.6335C255.859 91.6335 257.267 91.9549 258.413 92.6032C259.559 93.2513 260.39 94.1156 260.905 95.196C261.426 96.2766 261.684 97.3127 261.684 98.2935C261.684 98.3932 261.684 98.5537 261.684 98.781L259.019 99.0247C259.019 98.3487 258.967 97.828 258.867 97.4456C258.681 96.7862 258.394 96.2268 258.003 95.7724C257.611 95.3181 257.076 94.9525 256.394 94.6755C255.711 94.3983 254.947 94.2597 254.097 94.2597C252.613 94.2597 251.457 94.6477 250.631 95.4289C249.996 96.0271 249.681 96.8196 249.681 97.8058C249.681 98.3932 249.81 98.9196 250.073 99.3793C250.33 99.8392 250.803 100.294 251.481 100.737C251.963 101.053 253.114 101.673 254.923 102.604C256.394 103.358 257.406 103.956 257.964 104.388C258.709 104.964 259.282 105.657 259.678 106.471C260.079 107.291 260.28 108.217 260.28 109.258C260.28 110.544 259.941 111.729 259.268 112.815C258.59 113.907 257.654 114.749 256.465 115.342C255.272 115.935 253.906 116.234 252.369 116.234C250.044 116.234 248.153 115.647 246.683 114.478C245.217 113.308 244.477 111.198 244.468 108.156ZM262.973 109.281C262.973 105.923 263.827 103.142 265.531 100.936C266.94 99.1245 268.783 98.2157 271.07 98.2157C272.855 98.2157 274.297 98.8641 275.395 100.161C276.489 101.457 277.038 103.208 277.038 105.408C277.038 107.386 276.694 109.225 276.002 110.926C275.314 112.627 274.33 113.934 273.061 114.838C271.786 115.746 270.449 116.201 269.041 116.201C267.885 116.201 266.835 115.913 265.89 115.342C264.94 114.771 264.219 113.957 263.722 112.91C263.221 111.863 262.973 110.655 262.973 109.281ZM265.493 108.992C265.493 110.616 265.832 111.846 266.506 112.682C267.179 113.519 268.038 113.94 269.079 113.94C269.623 113.94 270.163 113.813 270.692 113.558C271.227 113.303 271.724 112.921 272.182 112.4C272.645 111.879 273.037 111.286 273.357 110.621C273.681 109.956 273.944 109.242 274.139 108.472C274.431 107.402 274.574 106.377 274.574 105.391C274.574 103.834 274.235 102.626 273.557 101.767C272.874 100.908 272.02 100.476 270.989 100.476C270.191 100.476 269.466 100.698 268.811 101.136C268.153 101.573 267.561 102.211 267.031 103.058C266.501 103.9 266.114 104.881 265.866 106C265.617 107.12 265.493 108.117 265.493 108.992ZM278.288 115.835L282.571 92.0324H285.087L280.804 115.835H278.288ZM294.965 112.716C293.184 115.037 291.356 116.201 289.489 116.201C288.343 116.201 287.417 115.824 286.71 115.065C286.004 114.306 285.65 113.375 285.65 112.278C285.65 111.552 285.827 110.311 286.171 108.544L288.123 98.5814H290.668L288.505 109.751C288.324 110.682 288.233 111.408 288.233 111.923C288.233 112.516 288.405 112.982 288.754 113.309C289.097 113.641 289.608 113.807 290.281 113.807C291.002 113.807 291.704 113.608 292.392 113.209C293.079 112.81 293.671 112.273 294.168 111.597C294.664 110.92 295.07 110.117 295.385 109.192C295.591 108.604 295.834 107.568 296.106 106.084L297.519 98.5814H300.035L296.746 115.835H294.406L294.965 112.716ZM306.662 113.453L306.242 115.857C305.635 116.04 305.048 116.134 304.48 116.134C303.473 116.134 302.675 115.846 302.079 115.27C301.635 114.838 301.41 114.245 301.41 113.497C301.41 113.12 301.53 112.245 301.773 110.882L303.578 100.842H301.573L301.974 98.5814H303.979L304.747 94.3539L307.646 92.3317L306.5 98.5814H308.992L308.562 100.842H306.099L304.38 110.389C304.165 111.602 304.06 112.328 304.06 112.566C304.06 112.915 304.146 113.181 304.318 113.364C304.489 113.547 304.771 113.641 305.163 113.641C305.721 113.641 306.223 113.58 306.662 113.453ZM312.367 95.3568L312.969 92.0324H315.485L314.883 95.3568H312.367ZM308.672 115.835L311.785 98.5814H314.301L311.188 115.835H308.672ZM315.523 109.281C315.523 105.923 316.378 103.142 318.082 100.936C319.49 99.1245 321.333 98.2157 323.62 98.2157C325.406 98.2157 326.848 98.8641 327.945 100.161C329.039 101.457 329.588 103.208 329.588 105.408C329.588 107.386 329.244 109.225 328.552 110.926C327.864 112.627 326.881 113.934 325.611 114.838C324.336 115.746 322.999 116.201 321.591 116.201C320.436 116.201 319.385 115.913 318.44 115.342C317.49 114.771 316.769 113.957 316.273 112.91C315.771 111.863 315.523 110.655 315.523 109.281ZM318.044 108.992C318.044 110.616 318.383 111.846 319.056 112.682C319.729 113.519 320.589 113.94 321.629 113.94C322.174 113.94 322.713 113.813 323.243 113.558C323.778 113.303 324.274 112.921 324.733 112.4C325.196 111.879 325.587 111.286 325.907 110.621C326.232 109.956 326.494 109.242 326.69 108.472C326.981 107.402 327.124 106.377 327.124 105.391C327.124 103.834 326.786 102.626 326.108 101.767C325.425 100.908 324.57 100.476 323.539 100.476C322.742 100.476 322.016 100.698 321.362 101.136C320.703 101.573 320.111 102.211 319.581 103.058C319.051 103.9 318.664 104.881 318.416 106C318.168 107.12 318.044 108.117 318.044 108.992ZM330.996 115.835L334.109 98.5814H336.42L335.885 101.596C336.893 100.421 337.833 99.5621 338.712 99.0247C339.59 98.4873 340.483 98.2157 341.4 98.2157C342.617 98.2157 343.572 98.5982 344.264 99.3572C344.956 100.116 345.305 101.13 345.305 102.404C345.305 103.042 345.176 104.044 344.918 105.419L342.908 115.835H340.392L342.479 104.926C342.684 103.862 342.789 103.08 342.789 102.571C342.789 102 342.617 101.535 342.268 101.18C341.92 100.82 341.419 100.642 340.76 100.642C339.437 100.642 338.263 101.18 337.227 102.26C336.196 103.341 335.436 105.192 334.954 107.812L333.512 115.835H330.996ZM355.173 115.835L357.914 100.842H355.689L356.09 98.5814H358.334L358.768 96.1381C358.988 94.9136 359.217 94.0381 359.456 93.4953C359.695 92.9577 360.077 92.5089 360.611 92.1598C361.146 91.8109 361.876 91.6335 362.798 91.6335C363.442 91.6335 364.373 91.7887 365.596 92.1047L365.132 94.6697C364.278 94.4205 363.557 94.2931 362.979 94.2931C362.488 94.2931 362.11 94.4371 361.853 94.7196C361.599 95.0022 361.375 95.6781 361.189 96.7419L360.855 98.5814H363.71L363.309 100.842H360.434L357.689 115.835H355.173ZM363.304 109.281C363.304 105.923 364.158 103.142 365.863 100.936C367.271 99.1245 369.114 98.2157 371.401 98.2157C373.187 98.2157 374.629 98.8641 375.726 100.161C376.82 101.457 377.369 103.208 377.369 105.408C377.369 107.386 377.025 109.225 376.333 110.926C375.646 112.627 374.662 113.934 373.392 114.838C372.117 115.746 370.781 116.201 369.372 116.201C368.217 116.201 367.166 115.913 366.221 115.342C365.271 114.771 364.55 113.957 364.053 112.91C363.552 111.863 363.304 110.655 363.304 109.281ZM365.825 108.992C365.825 110.616 366.164 111.846 366.837 112.682C367.51 113.519 368.369 113.94 369.41 113.94C369.955 113.94 370.494 113.813 371.024 113.558C371.558 113.303 372.055 112.921 372.513 112.4C372.977 111.879 373.368 111.286 373.688 110.621C374.013 109.956 374.275 109.242 374.471 108.472C374.762 107.402 374.905 106.377 374.905 105.391C374.905 103.834 374.566 102.626 373.888 101.767C373.206 100.908 372.351 100.476 371.32 100.476C370.523 100.476 369.797 100.698 369.143 101.136C368.484 101.573 367.892 102.211 367.362 103.058C366.832 103.9 366.445 104.881 366.197 106C365.949 107.12 365.825 108.117 365.825 108.992ZM378.806 115.835L381.9 98.5814H384.158L383.518 102.111C384.292 100.787 385.041 99.806 385.777 99.1688C386.507 98.5317 387.256 98.2157 388.02 98.2157C388.522 98.2157 389.142 98.4262 389.877 98.8474L388.846 101.573C388.407 101.197 387.925 101.008 387.404 101.008C386.516 101.008 385.605 101.585 384.669 102.731C383.733 103.878 382.993 105.939 382.454 108.92L381.212 115.835H378.806ZM402.806 115.835L404.468 106.643L398.137 92.0324H401.092L404.129 98.9583C404.797 100.471 405.442 102.089 406.072 103.812C406.74 102.366 407.685 100.781 408.893 99.0525L413.682 92.0324H416.957L407.141 106.887L405.528 115.835H402.806ZM413.744 109.281C413.744 105.923 414.599 103.142 416.303 100.936C417.711 99.1245 419.554 98.2157 421.841 98.2157C423.627 98.2157 425.069 98.8641 426.167 100.161C427.26 101.457 427.809 103.208 427.809 105.408C427.809 107.386 427.465 109.225 426.773 110.926C426.086 112.627 425.102 113.934 423.832 114.838C422.557 115.746 421.221 116.201 419.812 116.201C418.657 116.201 417.606 115.913 416.661 115.342C415.711 114.771 414.99 113.957 414.494 112.91C413.992 111.863 413.744 110.655 413.744 109.281ZM416.265 108.992C416.265 110.616 416.604 111.846 417.277 112.682C417.95 113.519 418.809 113.94 419.85 113.94C420.395 113.94 420.934 113.813 421.464 113.558C421.999 113.303 422.495 112.921 422.953 112.4C423.417 111.879 423.808 111.286 424.128 110.621C424.453 109.956 424.715 109.242 424.911 108.472C425.202 107.402 425.345 106.377 425.345 105.391C425.345 103.834 425.007 102.626 424.329 101.767C423.646 100.908 422.791 100.476 421.76 100.476C420.963 100.476 420.237 100.698 419.583 101.136C418.924 101.573 418.332 102.211 417.802 103.058C417.272 103.9 416.885 104.881 416.637 106C416.389 107.12 416.265 108.117 416.265 108.992ZM439.372 112.716C437.591 115.037 435.763 116.201 433.896 116.201C432.751 116.201 431.824 115.824 431.118 115.065C430.411 114.306 430.058 113.375 430.058 112.278C430.058 111.552 430.234 110.311 430.578 108.544L432.531 98.5814H435.075L432.913 109.751C432.731 110.682 432.641 111.408 432.641 111.923C432.641 112.516 432.813 112.982 433.161 113.309C433.505 113.641 434.015 113.807 434.689 113.807C435.41 113.807 436.112 113.608 436.799 113.209C437.487 112.81 438.079 112.273 438.575 111.597C439.072 110.92 439.477 110.117 439.793 109.192C439.998 108.604 440.241 107.568 440.513 106.084L441.926 98.5814H444.443L441.153 115.835H438.814L439.372 112.716ZM445.178 115.835L448.272 98.5814H450.53L449.89 102.111C450.663 100.787 451.413 99.806 452.148 99.1688C452.879 98.5317 453.628 98.2157 454.392 98.2157C454.894 98.2157 455.514 98.4262 456.249 98.8474L455.218 101.573C454.779 101.197 454.297 101.008 453.776 101.008C452.888 101.008 451.976 101.585 451.041 102.731C450.105 103.878 449.365 105.939 448.825 108.92L447.584 115.835H445.178ZM468.348 115.835L472.162 94.7252H465.268L465.76 92.0324H482.045L481.553 94.7252H474.883L471.069 115.835H468.348ZM477.972 109.281C477.972 105.923 478.827 103.142 480.531 100.936C481.94 99.1245 483.783 98.2157 486.07 98.2157C487.855 98.2157 489.297 98.8641 490.395 100.161C491.488 101.457 492.037 103.208 492.037 105.408C492.037 107.386 491.694 109.225 491.001 110.926C490.314 112.627 489.33 113.934 488.06 114.838C486.786 115.746 485.449 116.201 484.04 116.201C482.885 116.201 481.835 115.913 480.889 115.342C479.939 114.771 479.218 113.957 478.722 112.91C478.221 111.863 477.972 110.655 477.972 109.281ZM480.493 108.992C480.493 110.616 480.832 111.846 481.505 112.682C482.178 113.519 483.038 113.94 484.079 113.94C484.623 113.94 485.162 113.813 485.692 113.558C486.227 113.303 486.724 112.921 487.182 112.4C487.645 111.879 488.036 111.286 488.356 110.621C488.681 109.956 488.944 109.242 489.139 108.472C489.431 107.402 489.574 106.377 489.574 105.391C489.574 103.834 489.235 102.626 488.557 101.767C487.874 100.908 487.02 100.476 485.988 100.476C485.191 100.476 484.465 100.698 483.811 101.136C483.152 101.573 482.56 102.211 482.03 103.058C481.501 103.9 481.114 104.881 480.866 106C480.617 107.12 480.493 108.117 480.493 108.992ZM503.601 112.716C501.82 115.037 499.991 116.201 498.125 116.201C496.979 116.201 496.052 115.824 495.346 115.065C494.639 114.306 494.286 113.375 494.286 112.278C494.286 111.552 494.463 110.311 494.807 108.544L496.759 98.5814H499.304L497.141 109.751C496.96 110.682 496.869 111.408 496.869 111.923C496.869 112.516 497.041 112.982 497.389 113.309C497.733 113.641 498.244 113.807 498.917 113.807C499.638 113.807 500.34 113.608 501.027 113.209C501.715 112.81 502.307 112.273 502.803 111.597C503.3 110.92 503.706 110.117 504.021 109.192C504.226 108.604 504.47 107.568 504.742 106.084L506.155 98.5814H508.671L505.381 115.835H503.042L503.601 112.716ZM509.406 115.835L512.5 98.5814H514.758L514.118 102.111C514.892 100.787 515.641 99.806 516.377 99.1688C517.107 98.5317 517.857 98.2157 518.621 98.2157C519.122 98.2157 519.742 98.4262 520.478 98.8474L519.446 101.573C519.007 101.197 518.525 101.008 518.005 101.008C517.117 101.008 516.205 101.585 515.269 102.731C514.333 103.878 513.593 105.939 513.054 108.92L511.812 115.835H509.406ZM540.162 113.508C538.992 114.616 537.995 115.37 537.164 115.768C536.333 116.168 535.416 116.367 534.409 116.367C532.542 116.367 531.039 115.73 529.902 114.461C528.761 113.187 528.193 111.585 528.193 109.657C528.193 108.405 528.403 107.291 528.828 106.333C529.253 105.369 529.888 104.493 530.728 103.718C531.368 103.13 532.318 102.504 533.564 101.839C533.082 100.598 532.786 99.7617 532.686 99.3407C532.557 98.7368 532.49 98.0884 532.49 97.3958C532.49 96.4872 532.709 95.5618 533.149 94.6254C533.588 93.6891 534.209 92.9577 535.011 92.4314C535.813 91.8995 536.686 91.6335 537.632 91.6335C538.945 91.6335 540.005 92.0769 540.802 92.9688C541.599 93.8609 542 94.9413 542 96.2101C542 97.2851 541.657 98.3487 540.973 99.407C540.286 100.465 538.935 101.573 536.92 102.731C538.147 105.291 539.327 107.391 540.458 109.037C541.141 108.078 541.785 106.953 542.401 105.662L544.607 106.976C543.996 108.472 543.151 109.94 542.067 111.369C542.668 112.272 543.447 113.358 544.406 114.633L542.506 116.4C541.556 115.458 540.773 114.494 540.162 113.508ZM535.984 100.543C537.355 99.7339 538.333 98.9085 538.921 98.0497C539.331 97.4679 539.537 96.8694 539.537 96.2654C539.537 95.6283 539.35 95.0908 538.973 94.6532C538.596 94.2154 538.138 93.9938 537.598 93.9938C536.944 93.9938 536.371 94.2986 535.87 94.908C535.374 95.5176 535.125 96.2488 535.125 97.091C535.125 98.116 535.412 99.2685 535.984 100.543ZM538.677 111.258C536.935 108.599 535.579 106.216 534.605 104.111C533.344 104.82 532.442 105.502 531.903 106.15C531.148 107.059 530.771 108.111 530.771 109.314C530.771 110.544 531.134 111.585 531.855 112.433C532.576 113.281 533.459 113.707 534.5 113.707C535.908 113.707 537.298 112.893 538.677 111.258ZM559.641 115.835L563.456 94.7252H556.562L557.053 92.0324H573.338L572.847 94.7252H566.177L562.362 115.835H559.641ZM569.342 115.835L572.436 98.5814H574.694L574.054 102.111C574.828 100.787 575.577 99.806 576.313 99.1688C577.043 98.5317 577.793 98.2157 578.556 98.2157C579.058 98.2157 579.678 98.4262 580.414 98.8474L579.383 101.573C578.943 101.197 578.461 101.008 577.941 101.008C577.053 101.008 576.141 101.585 575.205 102.731C574.269 103.878 573.529 105.939 572.99 108.92L571.748 115.835H569.342ZM588.879 113.691C588 114.566 587.155 115.203 586.348 115.602C585.536 116.001 584.668 116.201 583.741 116.201C582.371 116.201 581.268 115.735 580.428 114.799C579.588 113.868 579.167 112.671 579.167 111.214C579.167 110.25 579.359 109.402 579.736 108.66C580.113 107.923 580.614 107.33 581.235 106.881C581.86 106.432 582.624 106.111 583.532 105.917C584.104 105.784 585.188 105.685 586.783 105.607C588.377 105.529 589.523 105.336 590.215 105.025C590.411 104.222 590.511 103.557 590.511 103.025C590.511 102.344 590.296 101.812 589.867 101.418C589.275 100.881 588.415 100.609 587.279 100.609C586.215 100.609 585.341 100.881 584.658 101.429C583.98 101.978 583.488 102.759 583.178 103.767L580.628 103.502C581.149 101.795 581.975 100.487 583.106 99.5789C584.238 98.6702 585.665 98.2157 587.389 98.2157C589.222 98.2157 590.674 98.7256 591.748 99.7394C592.564 100.498 592.975 101.485 592.975 102.693C592.975 103.612 592.86 104.676 592.631 105.89L591.815 110.172C591.557 111.535 591.428 112.644 591.428 113.497C591.428 114.04 591.528 114.816 591.733 115.835H589.175C589.036 115.27 588.936 114.561 588.879 113.691ZM589.829 107.092C589.471 107.253 589.088 107.38 588.683 107.463C588.272 107.552 587.589 107.646 586.639 107.74C585.164 107.89 584.128 108.084 583.522 108.316C582.915 108.549 582.457 108.92 582.151 109.43C581.841 109.94 581.688 110.499 581.688 111.114C581.688 111.94 581.932 112.616 582.424 113.142C582.911 113.674 583.608 113.94 584.515 113.94C585.355 113.94 586.162 113.685 586.935 113.17C587.709 112.655 588.32 111.94 588.773 111.02C589.222 110.1 589.576 108.793 589.829 107.092ZM598.542 115.835L596.102 98.5814H598.565L599.84 108.078C599.984 109.12 600.155 110.815 600.361 113.164C600.848 111.94 601.468 110.538 602.223 108.959L607.188 98.5814H609.861L601.358 115.835H598.542ZM620.059 109.984L622.523 110.25C622.165 111.668 621.348 113.009 620.074 114.289C618.799 115.564 617.276 116.201 615.509 116.201C614.406 116.201 613.394 115.907 612.477 115.32C611.556 114.727 610.854 113.874 610.372 112.749C609.89 111.624 609.651 110.344 609.651 108.909C609.651 107.031 610.028 105.208 610.778 103.441C611.532 101.673 612.506 100.36 613.7 99.5013C614.898 98.6425 616.192 98.2157 617.586 98.2157C619.362 98.2157 620.78 98.853 621.84 100.127C622.9 101.396 623.43 103.136 623.43 105.336C623.43 106.178 623.363 107.036 623.234 107.923H612.258C612.22 108.261 612.201 108.56 612.201 108.832C612.201 110.45 612.521 111.68 613.165 112.533C613.805 113.381 614.592 113.807 615.519 113.807C616.388 113.807 617.247 113.48 618.092 112.821C618.932 112.167 619.591 111.22 620.059 109.984ZM612.664 105.662H621.038C621.047 105.363 621.052 105.147 621.052 105.014C621.052 103.551 620.732 102.427 620.097 101.645C619.458 100.864 618.641 100.476 617.638 100.476C616.55 100.476 615.562 100.908 614.669 101.767C613.771 102.632 613.108 103.928 612.664 105.662ZM624.881 115.835L629.164 92.0324H631.68L627.397 115.835H624.881Z" fill="white"/>
<path fill-rule="evenodd" clip-rule="evenodd" d="M86.8353 48.1196C89.9866 45.682 94.7025 39.4621 96.4636 35.5127C96.9127 34.5059 98.5753 30.8393 98.2553 29.8844V17.7813C98.5353 16.8522 97.1283 14.2917 96.5631 13.3869C95.6991 12.0035 94.9208 11.11 93.8574 9.97091C93.3997 9.48051 92.8179 9.0243 92.286 8.5811C91.1731 7.6531 87.8258 5.33627 86.7009 5.09241C86.3564 5.67081 86.572 26.1432 86.572 26.597L86.5626 47.6691C86.6729 48.2747 86.3545 47.9671 86.8353 48.1196Z" fill="white"/>
<path fill-rule="evenodd" clip-rule="evenodd" d="M76.8888 10.1607C79.5162 12.0728 82.004 14.5022 83.4335 17.6799C86.4465 24.378 85.4201 33.5711 82.9778 40.3867C81.6709 44.0348 80.1793 46.67 78.1026 49.7574C73.6933 56.3135 68.0325 60.2485 67.7581 60.6649C68.1624 60.5603 68.7601 60.2589 69.103 60.0689C74.6962 56.9678 76.8628 56.0864 82.5109 51.8211C83.0403 51.4214 86.459 48.6752 86.8353 48.1196C86.3545 47.9671 86.6734 48.2747 86.5632 47.6691L86.5725 26.597C86.5725 26.1432 86.3569 5.67081 86.7014 5.09241C85.5709 4.15281 78.1436 1.67862 76.6255 1.63342L76.4692 8.3796C76.5916 9.86893 76.8425 7.95895 76.8888 10.1607Z" fill="white"/>
<path fill-rule="evenodd" clip-rule="evenodd" d="M76.8888 10.1607C76.8425 7.95899 76.591 9.86897 76.4686 8.37964L76.6249 1.63346L72.7885 0.830566C68.2934 0.106566 64.7457 0.0312 60.1021 0H59.8087L51.327 0.701904L45.3789 1.70671C44.7137 1.84604 43.8985 1.88834 43.4415 2.24154C44.4616 2.24154 44.9083 2.0843 45.8567 2.0887C46.7087 2.0927 47.5606 2.09539 48.4128 2.09139C52.264 2.07552 58.3903 2.94973 62.1495 3.84733C67.5135 5.12813 73.0714 7.24953 76.8888 10.1607Z" fill="white"/>
<path fill-rule="evenodd" clip-rule="evenodd" d="M98.2553 29.8844C98.6164 29.567 98.5892 29.4278 98.7377 28.627C98.8467 28.0396 98.9011 27.7245 98.9877 27.1134C99.3049 24.876 99.2149 20.4469 98.6197 18.4318C98.4035 17.6994 98.6505 18.1283 98.2553 17.7812V29.8844Z" fill="white"/>
<path fill-rule="evenodd" clip-rule="evenodd" d="M4.34678 27.1117C4.67958 27.5969 4.55597 28.1652 4.55597 28.988H4.82481C4.82481 30.0133 4.96492 51.1595 4.74799 51.7925C4.73865 51.8177 4.71638 51.8542 4.70705 51.876C4.44105 52.4947 4.55597 52.0548 4.55597 53.493C4.68024 53.9408 5.27785 54.4535 5.58958 54.8003C7.52865 56.9579 9.89717 58.5967 12.3628 59.9679C13.0245 60.3358 14.9589 61.4993 15.631 61.5616C15.6093 60.4134 15.3759 61.7371 15.3776 58.7227L15.3656 49.0103C14.4078 47.4523 14.0104 47.4307 13.0763 44.8295C12.5103 43.2536 12.296 41.0312 12.4064 38.6996C12.6423 33.7175 15.0729 29.4751 15.3732 28.2409L15.4175 16.1897C15.5137 15.7285 15.526 16.0909 15.6124 15.521C15.6468 15.2936 15.6305 15.0267 15.6305 14.7931C15.1901 14.9243 14.4308 15.6818 14.0377 16.0089C13.4692 16.482 13.0488 16.9274 12.4841 17.4189C12.122 17.7341 12.0816 17.8032 11.7668 18.1152C11.4415 18.4373 11.2916 18.4968 10.9603 18.8619C9.99627 19.9243 8.85504 20.8762 8.10797 21.9653L5.51292 25.3547C5.06385 25.9666 4.75958 26.531 4.34678 27.1117Z" fill="white"/>
<path fill-rule="evenodd" clip-rule="evenodd" d="M15.631 61.5615C16.064 61.9781 17.8037 62.5406 18.3358 62.738C19.3555 63.1157 20.2281 63.3975 21.321 63.7511C22.307 64.0699 26.7032 65.3765 27.5886 65.2461L27.9504 65.0391C27.64 64.8621 27.6722 65.4805 27.6932 63.5051L27.7271 58.5905C27.7936 58.2754 27.7505 58.4084 27.8574 58.2284L26.1556 57.328C23.0141 55.5781 19.2484 53.3045 16.6704 50.5449C16.1832 50.0233 15.7838 49.5549 15.3661 49.0103L15.3781 58.7227C15.3768 61.7371 15.6093 60.4134 15.631 61.5615Z" fill="white"/>
<path fill-rule="evenodd" clip-rule="evenodd" d="M4.55596 53.493C4.55596 52.0548 4.44104 52.4947 4.70704 51.876C4.71637 51.8542 4.73931 51.8177 4.74797 51.7925C4.96491 51.1595 4.8248 30.0133 4.8248 28.988H4.55596C4.55596 28.1652 4.67957 27.5969 4.34677 27.1117C2.90904 29.6953 2.61104 30.0081 1.48638 32.9788C-0.884023 39.2401 -0.361338 45.3766 2.6408 50.9078C3.0252 51.6162 3.88329 53.125 4.55596 53.493Z" fill="white"/>
<path fill-rule="evenodd" clip-rule="evenodd" d="M15.631 14.7931C15.631 15.0267 15.6473 15.2936 15.6129 15.5211C15.5265 16.0909 15.5143 15.7286 15.418 16.1898L15.3737 28.241L18.184 23.3093C18.7556 22.3495 20.6797 19.4079 21.5424 18.6781C21.3066 18.2918 21.3666 12.6458 21.3984 12.1029C21.444 11.3215 21.5007 11.847 21.7107 11.3119C21.8661 10.9158 22.0091 10.6096 21.5431 10.6086C20.8801 10.5632 15.9346 14.2922 15.631 14.7931Z" fill="white"/>
<path fill-rule="evenodd" clip-rule="evenodd" d="M21.5431 10.6085C22.0091 10.6096 21.8662 10.9158 21.7107 11.3119C21.5007 11.847 21.444 11.3212 21.3984 12.1028C21.3667 12.6458 21.3067 18.2918 21.5424 18.678C21.6012 18.2351 21.946 18.0318 22.4636 17.3109L30.376 8.9233C30.7713 8.4705 30.5243 8.85332 30.574 8.51746L30.5903 6.39856C30.5174 6.11069 30.6832 6.3932 30.3104 6.12667V5.52893L25.8854 7.81824C25.4766 8.0457 25.2228 8.18691 24.8107 8.41598C24.3408 8.67704 24.1115 8.87677 23.6943 9.1169L21.8583 10.2198C21.562 10.4812 21.7661 10.2132 21.5431 10.6085Z" fill="white"/>
<path fill-rule="evenodd" clip-rule="evenodd" d="M27.5886 65.2461C27.8466 65.4903 27.5122 65.2699 27.8842 65.4065L34.6069 66.4926L35.0861 66.33C35.118 66.318 35.1598 66.3002 35.1892 66.2883C35.2188 66.2763 35.2677 66.2523 35.2918 66.242C35.3161 66.2313 35.3639 66.2169 35.3947 66.1937L35.3772 61.4122C34.1386 61.0872 32.7574 60.398 31.6033 59.9354C30.2925 59.41 29.1522 58.776 27.8574 58.2284C27.7505 58.4084 27.7936 58.2755 27.7271 58.5905L27.6932 63.5052C27.6722 65.4805 27.64 64.8621 27.9504 65.0392L27.5886 65.2461Z" fill="white"/>
<path fill-rule="evenodd" clip-rule="evenodd" d="M34.6069 66.4925C35.3743 66.5716 36.2808 66.7677 37.1274 66.7912L42.6348 67.2402C43.5489 67.2953 44.6231 67.2394 45.5551 67.2394C45.9878 66.737 45.8275 65.8839 45.8189 64.8489L37.99 62.395C37.2477 62.1608 35.9783 61.7281 35.3772 61.4121L35.3947 66.1937C35.3639 66.2169 35.3161 66.2318 35.2919 66.2419C35.2677 66.2526 35.2188 66.2762 35.1892 66.2882C35.1599 66.3002 35.118 66.3175 35.0861 66.3299L34.6069 66.4925Z" fill="white"/>
<path fill-rule="evenodd" clip-rule="evenodd" d="M45.5551 67.2394C47.7681 67.2394 47.4294 67.5239 50.4345 67.2474C51.1845 67.1783 52.2034 67.2368 52.9805 67.2394C54.046 67.2434 54.5529 67.0897 55.5326 67.0897V66.9402C54.8632 66.9402 53.6528 66.6545 53.0793 66.5309L45.8189 64.8484C45.8269 65.8835 45.9877 66.737 45.5551 67.2394Z" fill="white"/>
<path fill-rule="evenodd" clip-rule="evenodd" d="M30.3104 5.52897V6.12671C30.6832 6.39338 30.5174 6.11073 30.5903 6.3986L30.574 8.5175C31.2329 8.2523 33.5667 6.10881 34.2099 5.57161L37.799 2.69019C37.0199 2.70939 34.7139 3.72362 34.0171 4.01229C33.3886 4.27256 32.8886 4.46053 32.2507 4.73747C31.6379 5.00333 30.94 5.40857 30.3104 5.52897Z" fill="white"/>
</svg>
